Coordinates
version=1
nRows=9
nColumns=24
inDegrees=yes

Units are S.I. units (second, meters, Newtons, ...)
Angles are in degrees.

endheader
time	pelvis_tilt	pelvis_list	pelvis_rotation	pelvis_tx	pelvis_ty	pelvis_tz	hip_flexion_r	hip_adduction_r	hip_rotation_r	knee_angle_r	ankle_angle_r	subtalar_angle_r	mtp_angle_r	hip_flexion_l	hip_adduction_l	hip_rotation_l	knee_angle_l	ankle_angle_l	subtalar_angle_l	mtp_angle_l	lumbar_extension	lumbar_bending	lumbar_rotation
      1.79150000	      1.57955864	      3.14125314	     -3.06099851	      1.37515130	      1.02858982	      0.28374105	      9.48731267	     -7.62258747	     -7.79302378	    -58.91523356	      5.72405112	     -7.27892667	     -0.09570086	      8.74673724	      9.79262763	      3.18568434	    -15.43213882	      5.79026261	    -15.57069311	      2.43893119	     -6.59115873	     -5.76159065	      3.17965839
      1.79566667	      1.59547481	      2.98871634	     -2.97814877	      1.37990706	      1.02942950	      0.28334810	     10.05818209	     -7.39931320	     -7.66928860	    -58.48602523	      6.03360821	     -7.51633765	     -0.12652435	      8.27104775	      9.67054108	      3.33512907	    -15.13672785	      5.84108198	    -15.54402224	      2.39640845	     -6.64793464	     -5.56082844	      3.14714812
      1.79983333	      1.66443658	      2.83171810	     -2.90424110	      1.38463690	      1.03032683	      0.28299202	     10.55653743	     -7.15707990	     -7.52180667	    -57.99373536	      6.14416786	     -7.92510004	     -0.23652678	      7.71964720	      9.55076903	      3.55724508	    -14.79525467	      5.80934580	    -15.65830781	      2.26874936	     -6.81983639	     -5.36067421	      3.01998175
      1.80400000	      1.70894265	      2.69527901	     -2.82921051	      1.38939121	      1.03112592	      0.28264630	     11.07278310	     -6.93954589	     -7.38178723	    -57.48361558	      6.35430707	     -8.25268205	     -0.36133325	      7.19439033	      9.44900677	      3.77281122	    -14.45153266	      5.76983382	    -15.78237871	      2.12163797	     -6.94042089	     -5.18722429	      2.90558891
      1.80816667	      1.72073123	      2.58517629	     -2.77854963	      1.39411373	      1.03178229	      0.28232734	     11.63655541	     -6.75058875	     -7.21928628	    -56.97817887	      6.60736579	     -8.49760323	     -0.95041392	      6.71080119	      9.37870080	      4.01995195	    -14.10621349	      5.65997885	    -16.08776175	      1.42987639	     -7.02471357	     -5.05429407	      2.76750111
      1.81233333	      1.75361190	      2.45042309	     -2.71983476	      1.39883006	      1.03245137	      0.28206383	     12.15236003	     -6.51595779	     -7.04966458	    -56.40880245	      6.74694858	     -8.87504904	     -1.01081083	      6.23210370	      9.25815171	      4.11199450	    -13.82810700	      5.73823419	    -16.00912204	      1.36492140	     -7.13624975	     -4.89300413	      2.75155024
      1.81650000	      1.75618343	      2.33510007	     -2.66353805	      1.40350445	      1.03300591	      0.28179844	     12.70287771	     -6.30640332	     -6.88527893	    -55.82231714	      6.85174256	     -9.21894301	     -1.09417506	      5.78973516	      9.16061505	      4.23798494	    -13.53835831	      5.76673894	    -16.02691600	      1.27581285	     -7.19603688	     -4.75563875	      2.66730736
      1.82066667	      1.76066832	      2.21882875	     -2.61803864	      1.40821692	      1.03353760	      0.28157282	     13.23331100	     -6.08563275	     -6.70244982	    -55.19612231	      6.97026468	     -9.53026813	     -1.17963988	      5.33784934	      9.05971098	      4.35971068	    -13.23347777	      5.77293246	    -16.09105330	      1.18609433	     -7.26769449	     -4.61758092	      2.60334275
      1.82483333	      1.76654214	      2.11781310	     -2.56619206	      1.41289892	      1.03400912	      0.28135323	     13.75572258	     -5.88175369	     -6.52257542	    -54.55009033	      7.07287384	     -9.82369735	     -1.27564992	      4.89416076	      8.97623339	      4.49733921	    -12.94810312	      5.78332321	    -16.16360338	      1.08391061	     -7.34057621	     -4.50415038	      2.52196258
